<mxfile host="www.draw.io" modified="2020-01-25T18:23:13.457Z" agent="Mozilla/5.0 (Windows NT 6.1; Win64; x64; rv:72.0) Gecko/20100101 Firefox/72.0" etag="bLOIneJiUIOyqpkBxxPa" version="12.5.8" type="github">
  <diagram id="K2NmaErrW_r6HKvZp8Xs" name="Page-1">
    <mxGraphModel dx="1662" dy="830" grid="1" gridSize="10" guides="1" tooltips="1" connect="1" arrows="1" fold="1" page="1" pageScale="1" pageWidth="1100" pageHeight="850" math="0" shadow="0">
      <root>
        <mxCell id="0"/>
        <mxCell id="1" parent="0"/>
        <mxCell id="ygMs4KsOhSDwuWLERgCy-1" value="sao_zapan_n(self)" style="rounded=0;whiteSpace=wrap;html=1;" vertex="1" parent="1">
          <mxGeometry x="340" y="70" width="370" height="60" as="geometry"/>
        </mxCell>
      </root>
    </mxGraphModel>
  </diagram>
</mxfile>
